<?xml version="1.0" encoding="utf-8"?>
<!-- Generator: Adobe Illustrator 19.0.0, SVG Export Plug-In . SVG Version: 6.00 Build 0)  -->
<svg version="1.1" id="Capa_1" xmlns="http://www.w3.org/2000/svg" xmlns:xlink="http://www.w3.org/1999/xlink" x="0px" y="0px"
	 viewBox="171 -80.7 953.7 953.7" style="enable-background:new 171 -80.7 953.7 953.7;" xml:space="preserve">
<g>
	<g>
		<path d="M553.4,639.2c-21.5,0-42.9-6.2-61.3-17.3c-4.6-2.8-9-6.3-13.1-9.2c-3.6-2.9-7.1-6.2-10.3-9.6
			c-2.4-2.6-14.4-22.3-16.3-22.4c-2.3-0.2-4.5-0.6-6.8-1c-22-3.6-43.7-15-60.8-32.1c-4.2-4.2-8-8.7-11.6-13.3L270.3,737.8
			c-5.4,10.7,3.3,23.1,15.2,21.6l131.8-16.1l67.1,117c6,10.4,21,10,26.3-0.7l104.7-207.1c-12-4.1-23.2-10.1-32.5-17.7
			C573.6,637.7,563.7,639.2,553.4,639.2z"/>
		<path d="M935.6,534.2c-3.5,4.7-7.4,9.1-11.7,13.3c-17.1,17.1-38.5,28.5-61,32.1c-2,0.4-4.3,0.7-6.6,0.9
			c-1.9,0.2-13.7,19.9-16.3,22.5c-5.1,5.3-10.6,9.6-16.7,14.5c-2.2,1-4.4,2.9-6.8,4.3c-18.3,11.2-39.8,17.4-61.3,17.4
			c-10.3,0-20.3-1.5-29.6-4.3c-9.4,7.6-20.5,13.6-32.5,17.7L798,859.8c5.4,10.7,20.5,11.1,26.3,0.7l67.1-117l131.8,16.1
			c11.9,1.5,20.6-11,15.2-21.6L935.6,534.2z"/>
		<path d="M724.2,599.7c2.9,0,6,0.5,8.9,1.6c34.5,12.2,78.7-6.2,94.3-39.2c4.3-9.1,13.1-15,23.1-15.4c36.5-1.7,70.5-35.6,72.5-72
			c0.5-9.8,6.3-18.4,15.1-22.5c33-15.8,51.3-60,39-94.4c-3.4-9.4-1.3-19.9,5.5-27.2c24.7-27,24.7-75,0.4-102.2
			c-6.6-7.2-8.5-17.4-5.3-26.6c12.2-34.5-6.2-78.7-39.2-94.3c-9.1-4.3-15-13.1-15.4-23.1c-0.8-16.7-8.7-34.7-23.3-49.3
			c-14.4-14.4-32.2-22.3-48.7-23.2c-9.8-0.5-18.4-6.3-22.5-15.1c-7.2-14.9-21.3-28.4-40.1-36.2C777.9-43.9,767-46,756.7-46
			c-8,0-15.7,1.3-22.6,3.7c-3,1.1-6.1,1.6-9.2,1.6c-6.6,0-13.1-2.4-18.1-7.1c-12.2-11.3-30.8-18.3-51.3-18.3c-0.7,0-1.5,0-2.2,0
			c-20.6,0-39,7.1-51.2,18.3c-5.1,4.6-11.6,7.1-18.1,7.1c-3,0-6.2-0.5-9.1-1.6c-6.9-2.4-14.6-3.7-22.6-3.7
			c-10.3,0-21.2,2.1-31.8,6.6c-18.8,7.8-32.9,21.3-40.1,36.2c-4.2,8.8-12.8,14.6-22.5,15.1c-16.5,0.9-34.3,8.8-48.7,23.2
			c-14.6,14.6-22.5,32.6-23.3,49.3c-0.5,10-6.4,18.8-15.4,23.1c-33,15.6-51.4,59.8-39.2,94.3c3.2,9.2,1.3,19.4-5.3,26.6
			c-24.4,27.1-24.3,75.1,0.4,102.2c6.8,7.4,8.8,17.8,5.5,27.2c-12.3,34.4,6,78.7,39,94.4c8.8,4.2,14.6,12.8,15.1,22.5
			c2,36.4,35.9,70.3,72.5,72c10,0.5,18.8,6.4,23.1,15.4c1.1,2.3,2.3,4.4,3.6,6.6c0.6,0.9,1.2,1.8,1.8,2.6c18.8,27.1,57.9,41,89,30
			c2.9-1.1,5.9-1.6,8.9-1.6c6.5,0,12.7,2.4,17.7,6.8c14,12.5,33.1,18.3,51.8,18c19.6,0.3,38-5.5,52-18
			C711.3,602.1,717.8,599.7,724.2,599.7z M655.5,549.6c-36.7,0.1-73.5-7-107.3-21.3c-32.2-13.6-61.1-33.1-85.9-58
			c-13.1-13.1-24.8-27.4-34.9-42.8c-8.9-13.6-16.7-28-23.1-43.2C390.1,351,383,315.6,383,279c0-36.5,7.2-71.9,21.3-105.3
			c13.6-32.2,33.1-61.1,58-85.9c24.8-24.8,53.8-44.3,85.9-58c23-9.7,47.3-16.3,72.1-19.3c11.8-1.5,23.4-2,35.3-2
			c36.5,0,72.1,7.2,105.4,21.3c32.2,13.6,61.1,33.1,85.9,58c24.8,24.8,44.3,53.8,58,85.9C918.8,207,926,242.5,926,279
			s-7.2,71.9-21.3,105.3c-6.4,15.2-14.1,29.6-23.1,43.2c-10.1,15.3-21.7,29.7-34.9,42.8c-24.8,24.8-53.8,44.3-86,58
			c-28.9,12.2-59.5,19.2-90.8,20.9C665.2,549.4,660.4,549.6,655.5,549.6z"/>
	</g>
	<g>
		<path d="M652.9,190.3c-40.4,0-73.3,32.8-73.3,73.3c0,6.3,5.1,11.5,11.5,11.5c6.3,0,11.5-5.1,11.5-11.5c0-27.8,22.7-50.4,50.4-50.4
			c6.4,0,11.5-5.1,11.5-11.5C664.3,195.5,659.3,190.3,652.9,190.3z"/>
		<path d="M874.2,186.2c-11.9-28.1-28.9-53.4-50.6-75c-21.6-21.6-46.9-38.7-75-50.6c-22.9-9.7-47.3-15.7-72.1-17.7
			c-7.3-0.6-14.8-0.8-22.1-0.8c-31.8,0-62.8,6.3-91.9,18.5c-28.1,11.9-53.4,28.9-75,50.6c-21.6,21.6-38.7,46.9-50.6,75
			c-12.3,29.1-18.5,60-18.5,91.9s6.3,62.8,18.5,91.9c5.6,13.1,12.3,25.8,20.2,37.7c8.8,13.4,19.1,26,30.5,37.4
			c21.6,21.6,46.9,38.7,75,50.6c25.2,10.7,51.8,16.7,79.1,18.2c9.2,0.5,18.5,0.5,27.7,0c27.4-1.5,54.1-7.5,79.2-18.2
			c28.1-11.9,53.4-28.9,75-50.6c11.4-11.5,21.6-24,30.5-37.4c7.8-11.9,14.6-24.6,20.2-37.7c12.3-29.1,18.5-60,18.5-91.9
			S886.4,215.3,874.2,186.2z M748.2,151.7l28.4-28.4c4.5-4.5,11.7-4.5,16.2,0c4.5,4.5,4.5,11.7,0,16.2l-28.4,28.4
			c-2.2,2.2-5.2,3.3-8.1,3.3c-3,0-5.9-1.1-8.1-3.3C743.7,163.4,743.7,156.2,748.2,151.7z M641.4,76.7c0-6.4,5.1-11.5,11.5-11.5
			c6.4,0,11.5,5.2,11.5,11.5v40.1c0,6.4-5.2,11.5-11.5,11.5c-6.3,0-11.5-5.1-11.5-11.5V76.7z M512.9,123.2c4.5-4.5,11.7-4.5,16.2,0
			l28.4,28.4c4.5,4.5,4.5,11.7,0,16.2c-2.2,2.2-5.2,3.3-8.1,3.3c-2.9,0-5.9-1.1-8.1-3.3l-28.5-28.4
			C508.4,134.9,508.4,127.7,512.9,123.2z M466.4,274.7c-6.4,0-11.5-5.2-11.5-11.5c0-6.4,5.2-11.5,11.5-11.5h40.1
			c6.4,0,11.5,5.2,11.5,11.5c0,6.4-5.1,11.5-11.5,11.5H466.4z M557.5,374.8l-28.4,28.4c-2.2,2.2-5.2,3.3-8.1,3.3
			c-2.9,0-5.9-1.1-8.1-3.3c-4.5-4.5-4.5-11.7,0-16.2l28.4-28.4c4.4-4.5,11.7-4.5,16.1,0C562,363.1,562,370.3,557.5,374.8z
			 M699.9,437.8c0,9.6-7,17.6-16.2,18.9l-3,10.9c-1.6,5.9-7,10.1-13.2,10.1h-29.5c-6.2,0-11.5-4.2-13.2-10.1l-2.9-10.9
			c-9.3-1.4-16.3-9.3-16.3-19v-12.1c0-6.5,5.2-11.6,11.6-11.6h70.9c6.5,0.1,11.6,5.3,11.6,11.7V437.8z M701,384.4
			c-1.3,8.1-8.3,14.2-16.6,14.2h-63.1c-8.2,0-15.4-5.9-16.6-14.1c-3-18.9-11.7-36.9-25.1-50.8c-17.3-18-28.1-42.4-28.3-69.3
			c-0.6-56.5,44.4-102.3,100.9-102.7c56.4-0.4,102.3,45.2,102.3,101.6c0,27.4-10.9,52.3-28.5,70.5
			C712.6,347.7,703.9,365.5,701,384.4z M792.8,403.2c-2.2,2.2-5.2,3.3-8.1,3.3c-2.9,0-5.9-1.1-8.1-3.3l-28.4-28.4
			c-4.5-4.5-4.5-11.7,0-16.2c4.5-4.5,11.7-4.5,16.2,0l28.3,28.4C797.3,391.5,797.3,398.7,792.8,403.2z M839.4,274.7h-40.1
			c-6.4,0-11.5-5.2-11.5-11.5c0-6.4,5.2-11.5,11.5-11.5h40.1c6.4,0,11.5,5.2,11.5,11.5C850.8,269.6,845.6,274.7,839.4,274.7z"/>
	</g>
</g>
</svg>
