<?xml version="1.0" encoding="utf-8"?>
<!-- Generator: Adobe Illustrator 19.0.0, SVG Export Plug-In . SVG Version: 6.00 Build 0)  -->
<svg version="1.1" id="Capa_1" xmlns="http://www.w3.org/2000/svg" xmlns:xlink="http://www.w3.org/1999/xlink" x="0px" y="0px"
	 viewBox="171 -80.7 953.7 953.7" style="enable-background:new 171 -80.7 953.7 953.7;" xml:space="preserve">
<g>
	<path d="M553.4,639.2c-21.5,0-42.9-6.2-61.3-17.3c-4.6-2.8-9-6.3-13.1-9.2c-3.6-2.9-7.1-6.2-10.3-9.6c-2.4-2.6-14.4-22.3-16.3-22.4
		c-2.3-0.2-4.5-0.6-6.8-1c-22-3.6-43.7-15-60.8-32.1c-4.2-4.2-8-8.7-11.6-13.3L270.3,737.8c-5.4,10.7,3.3,23.1,15.2,21.6l131.8-16.1
		l67.1,117c6,10.4,21,10,26.3-0.7l104.7-207.1c-12-4.1-23.2-10.1-32.5-17.7C573.6,637.7,563.7,639.2,553.4,639.2z"/>
	<path d="M935.6,534.2c-3.5,4.7-7.4,9.1-11.7,13.3c-17.1,17.1-38.5,28.5-61,32.1c-2,0.4-4.3,0.7-6.6,0.9
		c-1.9,0.2-13.7,19.9-16.3,22.5c-5.1,5.3-10.6,9.6-16.7,14.5c-2.2,1-4.4,2.9-6.8,4.3c-18.3,11.2-39.8,17.4-61.3,17.4
		c-10.3,0-20.3-1.5-29.6-4.3c-9.4,7.6-20.5,13.6-32.5,17.7L798,859.8c5.4,10.7,20.5,11.1,26.3,0.7l67.1-117l131.8,16.1
		c11.9,1.5,20.6-11,15.2-21.6L935.6,534.2z"/>
	<path d="M724.2,599.7c2.9,0,6,0.5,8.9,1.6c34.5,12.2,78.7-6.2,94.3-39.2c4.3-9.1,13.1-15,23.1-15.4c36.5-1.7,70.5-35.6,72.5-72
		c0.5-9.8,6.3-18.4,15.1-22.5c33-15.8,51.3-60,39-94.4c-3.4-9.4-1.3-19.9,5.5-27.2c24.7-27,24.7-75,0.4-102.2
		c-6.6-7.2-8.5-17.4-5.3-26.6c12.2-34.5-6.2-78.7-39.2-94.3c-9.1-4.3-15-13.1-15.4-23.1c-0.8-16.7-8.7-34.7-23.3-49.3
		c-14.4-14.4-32.2-22.3-48.7-23.2c-9.8-0.5-18.4-6.3-22.5-15.1c-7.2-14.9-21.3-28.4-40.1-36.2C777.9-43.9,767-46,756.7-46
		c-8,0-15.7,1.3-22.6,3.7c-3,1.1-6.1,1.6-9.2,1.6c-6.6,0-13.1-2.4-18.1-7.1c-12.2-11.3-30.8-18.3-51.3-18.3c-0.7,0-1.5,0-2.2,0
		c-20.6,0-39,7.1-51.2,18.3c-5.1,4.6-11.6,7.1-18.1,7.1c-3,0-6.2-0.5-9.1-1.6c-6.9-2.4-14.6-3.7-22.6-3.7c-10.3,0-21.2,2.1-31.8,6.6
		c-18.8,7.8-32.9,21.3-40.1,36.2c-4.2,8.8-12.8,14.6-22.5,15.1c-16.5,0.9-34.3,8.8-48.7,23.2c-14.6,14.6-22.5,32.6-23.3,49.3
		c-0.5,10-6.4,18.8-15.4,23.1c-33,15.6-51.4,59.8-39.2,94.3c3.2,9.2,1.3,19.4-5.3,26.6c-24.4,27.1-24.3,75.1,0.4,102.2
		c6.8,7.4,8.8,17.8,5.5,27.2c-12.3,34.4,6,78.7,39,94.4c8.8,4.2,14.6,12.8,15.1,22.5c2,36.4,35.9,70.3,72.5,72
		c10,0.5,18.8,6.4,23.1,15.4c1.1,2.3,2.3,4.4,3.6,6.6c0.6,0.9,1.2,1.8,1.8,2.6c18.8,27.1,57.9,41,89,30c2.9-1.1,5.9-1.6,8.9-1.6
		c6.5,0,12.7,2.4,17.7,6.8c14,12.5,33.1,18.3,51.8,18c19.6,0.3,38-5.5,52-18C711.3,602.1,717.8,599.7,724.2,599.7z M655.5,549.6
		c-36.7,0.1-73.5-7-107.3-21.3c-32.2-13.6-61.1-33.1-85.9-58c-13.1-13.1-24.8-27.4-34.9-42.8c-8.9-13.6-16.7-28-23.1-43.2
		C390.1,351,383,315.6,383,279c0-36.5,7.2-71.9,21.3-105.3c13.6-32.2,33.1-61.1,58-85.9c24.8-24.8,53.8-44.3,85.9-58
		c23-9.7,47.3-16.3,72.1-19.3c11.8-1.5,23.4-2,35.3-2c36.5,0,72.1,7.2,105.4,21.3c32.2,13.6,61.1,33.1,85.9,58
		c24.8,24.8,44.3,53.8,58,85.9C918.8,207,926,242.5,926,279s-7.2,71.9-21.3,105.3c-6.4,15.2-14.1,29.6-23.1,43.2
		c-10.1,15.3-21.7,29.7-34.9,42.8c-24.8,24.8-53.8,44.3-86,58c-28.9,12.2-59.5,19.2-90.8,20.9C665.2,549.4,660.4,549.6,655.5,549.6z
		"/>
</g>
<path d="M873.2,187.1c-11.9-28.1-28.9-53.4-50.6-75c-21.6-21.6-46.9-38.7-75-50.6c-22.9-9.7-47.3-15.7-72.1-17.7
	c-7.3-0.6-14.8-0.8-22.1-0.8c-31.8,0-62.8,6.3-91.9,18.5c-28.1,11.9-53.4,28.9-75,50.6c-21.6,21.6-38.7,46.9-50.6,75
	c-12.3,29.1-18.5,60-18.5,91.9s6.3,62.8,18.5,91.9c5.6,13.1,12.3,25.8,20.2,37.7c8.8,13.4,19.1,26,30.5,37.4
	c21.6,21.6,46.9,38.7,75,50.6c25.2,10.7,51.8,16.7,79.1,18.2c9.2,0.5,18.5,0.5,27.7,0c27.4-1.5,54.1-7.5,79.2-18.2
	c28.1-11.9,53.4-28.9,75-50.6c11.4-11.5,21.6-24,30.5-37.4c7.8-11.9,14.6-24.6,20.2-37.7c12.3-29.1,18.5-60,18.5-91.9
	S885.4,216.2,873.2,187.1z M534.9,422l-41.3-41.3l26.6-26.6l14.8,14.8l41.7-41.7l26.6,26.6L534.9,422z M534.9,328.4l-41.3-41.3
	l26.6-26.6l14.8,14.8l41.7-41.7l26.6,26.6L534.9,328.4z M534.9,234.8l-41.3-41.3l26.6-26.6l14.8,14.8l41.7-41.7l26.6,26.6
	L534.9,234.8z M815.5,406.3H633.1v-37.6h182.4V406.3z M815.5,312.6H633.1V275h182.4V312.6z M815.5,218.9H633.1v-37.6h182.4V218.9z"
	/>
</svg>
