<?xml version="1.0" encoding="utf-8"?>
<!-- Generator: Adobe Illustrator 19.0.0, SVG Export Plug-In . SVG Version: 6.00 Build 0)  -->
<svg version="1.1" id="Capa_1" xmlns="http://www.w3.org/2000/svg" xmlns:xlink="http://www.w3.org/1999/xlink" x="0px" y="0px"
	 viewBox="171 -80.7 953.7 953.7" style="enable-background:new 171 -80.7 953.7 953.7;" xml:space="preserve">
<g>
	<path d="M553.4,639.2c-21.5,0-42.9-6.2-61.3-17.3c-4.6-2.8-9-6.3-13.1-9.2c-3.6-2.9-7.1-6.2-10.3-9.6c-2.4-2.6-14.4-22.3-16.3-22.4
		c-2.3-0.2-4.5-0.6-6.8-1c-22-3.6-43.7-15-60.8-32.1c-4.2-4.2-8-8.7-11.6-13.3L270.3,737.8c-5.4,10.7,3.3,23.1,15.2,21.6l131.8-16.1
		l67.1,117c6,10.4,21,10,26.3-0.7l104.7-207.1c-12-4.1-23.2-10.1-32.5-17.7C573.6,637.7,563.7,639.2,553.4,639.2z"/>
	<path d="M935.6,534.2c-3.5,4.7-7.4,9.1-11.7,13.3c-17.1,17.1-38.5,28.5-61,32.1c-2,0.4-4.3,0.7-6.6,0.9
		c-1.9,0.2-13.7,19.9-16.3,22.5c-5.1,5.3-10.6,9.6-16.7,14.5c-2.2,1-4.4,2.9-6.8,4.3c-18.3,11.2-39.8,17.4-61.3,17.4
		c-10.3,0-20.3-1.5-29.6-4.3c-9.4,7.6-20.5,13.6-32.5,17.7L798,859.8c5.4,10.7,20.5,11.1,26.3,0.7l67.1-117l131.8,16.1
		c11.9,1.5,20.6-11,15.2-21.6L935.6,534.2z"/>
	<path d="M724.2,599.7c2.9,0,6,0.5,8.9,1.6c34.5,12.2,78.7-6.2,94.3-39.2c4.3-9.1,13.1-15,23.1-15.4c36.5-1.7,70.5-35.6,72.5-72
		c0.5-9.8,6.3-18.4,15.1-22.5c33-15.8,51.3-60,39-94.4c-3.4-9.4-1.3-19.9,5.5-27.2c24.7-27,24.7-75,0.4-102.2
		c-6.6-7.2-8.5-17.4-5.3-26.6c12.2-34.5-6.2-78.7-39.2-94.3c-9.1-4.3-15-13.1-15.4-23.1c-0.8-16.7-8.7-34.7-23.3-49.3
		c-14.4-14.4-32.2-22.3-48.7-23.2c-9.8-0.5-18.4-6.3-22.5-15.1c-7.2-14.9-21.3-28.4-40.1-36.2C777.9-43.9,767-46,756.7-46
		c-8,0-15.7,1.3-22.6,3.7c-3,1.1-6.1,1.6-9.2,1.6c-6.6,0-13.1-2.4-18.1-7.1c-12.2-11.3-30.8-18.3-51.3-18.3c-0.7,0-1.5,0-2.2,0
		c-20.6,0-39,7.1-51.2,18.3c-5.1,4.6-11.6,7.1-18.1,7.1c-3,0-6.2-0.5-9.1-1.6c-6.9-2.4-14.6-3.7-22.6-3.7c-10.3,0-21.2,2.1-31.8,6.6
		c-18.8,7.8-32.9,21.3-40.1,36.2c-4.2,8.8-12.8,14.6-22.5,15.1c-16.5,0.9-34.3,8.8-48.7,23.2c-14.6,14.6-22.5,32.6-23.3,49.3
		c-0.5,10-6.4,18.8-15.4,23.1c-33,15.6-51.4,59.8-39.2,94.3c3.2,9.2,1.3,19.4-5.3,26.6c-24.4,27.1-24.3,75.1,0.4,102.2
		c6.8,7.4,8.8,17.8,5.5,27.2c-12.3,34.4,6,78.7,39,94.4c8.8,4.2,14.6,12.8,15.1,22.5c2,36.4,35.9,70.3,72.5,72
		c10,0.5,18.8,6.4,23.1,15.4c1.1,2.3,2.3,4.4,3.6,6.6c0.6,0.9,1.2,1.8,1.8,2.6c18.8,27.1,57.9,41,89,30c2.9-1.1,5.9-1.6,8.9-1.6
		c6.5,0,12.7,2.4,17.7,6.8c14,12.5,33.1,18.3,51.8,18c19.6,0.3,38-5.5,52-18C711.3,602.1,717.8,599.7,724.2,599.7z M655.5,549.6
		c-36.7,0.1-73.5-7-107.3-21.3c-32.2-13.6-61.1-33.1-85.9-58c-13.1-13.1-24.8-27.4-34.9-42.8c-8.9-13.6-16.7-28-23.1-43.2
		C390.1,351,383,315.6,383,279c0-36.5,7.2-71.9,21.3-105.3c13.6-32.2,33.1-61.1,58-85.9c24.8-24.8,53.8-44.3,85.9-58
		c23-9.7,47.3-16.3,72.1-19.3c11.8-1.5,23.4-2,35.3-2c36.5,0,72.1,7.2,105.4,21.3c32.2,13.6,61.1,33.1,85.9,58
		c24.8,24.8,44.3,53.8,58,85.9C918.8,207,926,242.5,926,279s-7.2,71.9-21.3,105.3c-6.4,15.2-14.1,29.6-23.1,43.2
		c-10.1,15.3-21.7,29.7-34.9,42.8c-24.8,24.8-53.8,44.3-86,58c-28.9,12.2-59.5,19.2-90.8,20.9C665.2,549.4,660.4,549.6,655.5,549.6z
		"/>
</g>
<g>
	<path d="M566.8,292.3c5.7,0,13.4-10.3,14.9-14.3c0-1.7,0.7-3.4,1.9-4.8c1.4-1.6,4.7-5.3,25-3.3c4,0.4,6.8-1.6,8.1-2.9
		c1-0.9,1.7-2,2.2-3.1l-66.7-0.6c-4.6-0.2-8.3,1.1-10.4,3.8c-2.1,2.7-2.5,6.5-1.2,10.8l8.8,29.2c0.8-3.2,2.3-7,5.3-10
		C557.9,294,562.1,292.3,566.8,292.3z"/>
	<path d="M707.9,280.3c2.7-0.6,5.2-0.6,7.6-0.4L684,249.7c-3.4-3.2-7.6-4.9-11.9-4.5c-4.3,0.3-8.2,2.6-11,6.3l-31.5,41.9
		c1.6,0.9,3.1,2,4.5,3.3L707.9,280.3z M654.4,266.9h11.3v3.7h-11.3V266.9z"/>
	<path d="M719.6,290.8c-2-2.1-5.5-2.7-9.8-1.7l-68,15.1l38.6,38.2l-0.7,0.7c11.7,0.3,22.2,0.5,31.1,0.7l10.3-43.2
		C722.2,296.3,721.7,292.8,719.6,290.8z M669.3,323.5l-9.2-6.6l2.2-3l9.2,6.6L669.3,323.5z"/>
	<polygon points="546.8,328.6 547.2,328.3 546.7,328.5 	"/>
	<path d="M532,280.6c-2.1-7.2-1.2-13.9,2.8-18.9c3.9-5,10.2-7.6,17.7-7.2l13.4,0.1l13.7-11.9l-33.9-9.9c-4.6-1.6-9-1.2-12.5,0.9
		c-3.6,2.1-6,5.8-6.7,10.4l-6.4,37.8l13.8,4.3L532,280.6z"/>
	<path d="M513.8,326l-12.5,9.2l1,3c2.2,0.3,4.6,0.5,7.2,0.6c7,0.2,19.4,0.5,35,0.9l-7.3-8.6C530.7,323.5,520.2,321.2,513.8,326z"/>
	<path d="M495.8,283.7c-3.9-1.2-7.1-1.1-8.5,0.4s-1.5,4.6-0.2,8.5l11.2,33.7l10.1-7.5c10.2-7.6,26.1-4.6,35.6,6.6l2.3,2.8l-9.5-31.5
		L495.8,283.7z M522.4,301.1h-11.3v-3.7h11.3V301.1z"/>
	<path d="M600.4,301.6l-47.8,33.8l3.9,4.6c33.1,0.8,75.9,1.9,111.7,2.7L628.9,304C621.6,296.7,608.8,295.7,600.4,301.6z M584,334.2
		h-11.3v-3.7H584V334.2z"/>
	<path d="M802,234.1c-1.8,0.4-3.5,3.1-4.4,7l-15,65.3l48.5-41.4l-22-26.7C806.6,235.3,803.9,233.6,802,234.1z M806.1,272.7
		l-3.2-10.8l3.6-1l3.2,10.8L806.1,272.7z"/>
	<path d="M667.3,161c1.1,0.3,2.3,0.4,3.5,0.4c2.4,0,4.7-0.5,6.5-1.4l71.2-38c3.6-1.9,3.6-5,0-6.9c-20.7-11.1-48.3-17.2-77.7-17.2
		c-5.1,0-9.2,2.2-9.2,4.9v53.7C661.6,158.5,663.8,160.3,667.3,161z M712.7,122H724v3.7h-11.3V122z M688.9,141.7h-11.3v-3.7h11.3
		V141.7z M671.9,114.7h11.3v3.7h-11.3V114.7z"/>
	<path d="M873.2,187.2c-11.9-28.1-28.9-53.4-50.6-75c-21.6-21.6-46.9-38.7-75-50.6c-22.9-9.7-47.3-15.7-72.1-17.7
		c-7.3-0.6-14.8-0.8-22.1-0.8c-31.8,0-62.8,6.3-91.9,18.5c-28.1,11.9-53.4,28.9-75,50.6c-21.6,21.6-38.7,46.9-50.6,75
		c-12.3,29.1-18.5,60-18.5,91.9s6.3,62.8,18.5,91.9c5.6,13.1,12.3,25.8,20.2,37.7c8.8,13.4,19.1,26,30.5,37.4
		c21.6,21.6,46.9,38.7,75,50.6c25.2,10.7,51.8,16.7,79.1,18.2c9.2,0.5,18.5,0.5,27.7,0c27.4-1.5,54.1-7.5,79.2-18.2
		c28.1-11.9,53.4-28.9,75-50.6c11.4-11.5,21.6-24,30.5-37.4c7.8-11.9,14.6-24.6,20.2-37.7c12.3-29.1,18.5-60,18.5-91.9
		S885.4,216.3,873.2,187.2z M654.4,97c0-3.5,5.3-6.4,11.9-6.4c38.1,0,73.8,7.9,100.7,22.3c4.6,2.5,4.6,6.5,0,9l-92.3,49.3
		c-2.3,1.2-5.3,1.9-8.4,1.9c-1.5,0-3.1-0.2-4.6-0.5c-4.4-1-7.3-3.3-7.3-5.9V97z M844.4,286.2c0,9.9-2.1,22.4-4.8,28l-4.8,10.1
		c0,0,0,6.4,0,14.2c0,7.8-5.7,19.8-12.8,26.7L757,428.8c-7.1,6.9-20.8,12.3-30.7,12.1l-198.8-4.3c-9.9-0.2-21.1-7.7-24.9-16.9
		c-13-31.9-38.1-99.5-21-105c0,0-5.9,14.5,10.5,21l-13.4-40.3c-3.3-9.9,0-15.3,2.3-17.6c2.3-2.3,7.6-5.8,17.6-2.6l12.8,4l6.2-36.6
		c1.2-7.2,5.1-13.1,11-16.6c5.9-3.5,12.9-4.1,19.8-1.7l39.3,11.4l18.3-15.9c5.6-4.9,12.2-6.8,18.6-5.4c5.4,1.2,9.8,4.7,13,9.8
		L677,208c12.3-5,27.2-0.6,35.2,9.8l34.7-20.8c6.3-3.8,13.2-4.6,19.3-2.1c6.1,2.4,10.5,7.7,12.5,14.9l9.2,33.7l1-4.6
		c2.3-10.2,7.9-13,11.1-13.7c3.1-0.7,9.4-0.8,16,7.3l21.9,26.6l6.5-5.5V286.2z"/>
	<path d="M770,212.3c-1.2-4.4-3.7-7.6-7.2-8.9c-3.4-1.4-7.4-0.9-11.3,1.5l-34.6,20.7l7,12.4c5.2-5,14.7-4.3,20.4-3.8
		c1,0.1,1.8,0.2,2.6,0.2c0.6,0,1.1,0,1.3,0c0-0.1,0.1-0.3,0.2-0.6c1.2-4,4.6-6.6,8.7-6.8c6.7-0.2,15.1,5.9,18.2,13.5
		c2.6,6.5,1.1,13.2-4.2,17.8c-2.8,2.5-7,2.2-9.5-0.6c-2.5-2.8-2.2-7,0.6-9.5c1.1-1,1-1.5,0.9-2.2c-0.5-1.7-2-3.4-3.5-4.5
		c-2.1,3.4-6,6.7-13.4,6.3c-0.9,0-1.9-0.1-3-0.2c-2.3-0.2-7.5-0.7-9.6,0c-0.5,2.9,0,6.4,0.6,7.8c1.4,3.3,1.2,6.7-0.5,9.6
		c-3,5-9.3,5.9-11.1,6.1c-0.2,0-0.4,0-0.7,0c-3.4,0-6.3-2.6-6.7-6.1c-0.4-3.5,2.1-6.7,5.6-7.3c-0.7-2.6-0.9-5.6-0.8-8.5l-13.5-23.7
		c-5-8.8-16.8-12.9-26.2-9l-38.8,15.9l8.6,19l3.8-5.1c4.4-5.8,10.6-9.3,17.5-9.9c6.8-0.6,13.6,1.9,18.8,7l36.4,35l-3.8,3.9
		c1.1,0.7,2.2,1.4,3.1,2.4c4.3,4.3,5.7,10.8,3.9,18.2l-9.8,41.3c11.2,0.3,17.9,0.4,17.9,0.4l33.2-28.3l12.5-54L770,212.3z
		 M755.2,218.5h-11.3v-3.7h11.3V218.5z M706.6,232.2h-11.3v-3.7h11.3V232.2z M745.9,319h-11.3v-3.7h11.3V319z M739,260.2l2.2-3
		l9.2,6.6l-2.2,3L739,260.2z M760.8,288.5h-11.3v-3.7h11.3V288.5z"/>
	<path d="M621.6,255.1c1.1-1.2,2.7-2.1,4.5-2.2c3.7-0.2,6.9,2.6,7.1,6.3c0.4,6.3-2.3,12.9-7.3,17.6c-5.1,4.9-11.9,7.3-18.8,6.6
		c-6.2-0.6-10.5-0.6-13-0.4c-1.4,3.7-4.1,7.4-6,9.9c-3.8,4.8-11.6,12.9-21.4,12.9c-1.5,0-2.1,0.5-2.6,0.9c-1.7,1.7-2.3,5.7-2.3,6.9
		c0,3.7-3,6.7-6.7,6.8c0,0,0,0,0,0c-0.7,0-1.4-0.2-2-0.4l1,3.4l41-29c7.3-5.2,17-6.6,25.8-4.4l22.9-30.5l-13-28.6
		c-1.9-4.1-4.8-6.8-8.4-7.6c-3.5-0.8-7.4,0.4-10.8,3.4l-32.5,28.1L621.6,255.1z M617.3,245.2v3.7H606v-3.7H617.3z"/>
</g>
</svg>
